<?xml version="1.0" encoding="UTF-8" standalone="no"?>
<svg width="215.9mm" height="215.9mm"
 viewBox="0 0 2550 2550"
 xmlns="http://www.w3.org/2000/svg" xmlns:xlink="http://www.w3.org/1999/xlink"  version="1.2" baseProfile="tiny">
<defs>
</defs>
<g fill="none" stroke="black" stroke-width="1" fill-rule="evenodd" stroke-linecap="square" stroke-linejoin="bevel" >

<g fill="#ffffff" fill-opacity="0" stroke="none" transform="matrix(1,0,0,1,0,0)"
font-family="Arial" font-size="12" font-weight="400" font-style="normal"
>
<rect x="0" y="0" width="2550" height="2550"/>
</g>

<g fill="none" stroke="#000000" stroke-opacity="0" stroke-width="0" stroke-linecap="square" stroke-linejoin="bevel" transform="matrix(1,0,0,1,0,0)"
font-family="Arial" font-size="12" font-weight="400" font-style="normal"
>
</g>

<g fill="#000000" fill-opacity="1" stroke="#000000" stroke-opacity="1" stroke-width="150" stroke-linecap="butt" stroke-linejoin="miter" stroke-miterlimit="2" transform="matrix(1,0,0,1,0,0)"
font-family="Arial" font-size="12" font-weight="400" font-style="normal"
>
</g>

<g fill="#000000" fill-opacity="1" stroke="#000000" stroke-opacity="1" stroke-width="150" stroke-linecap="round" stroke-linejoin="bevel" transform="matrix(1,0,0,1,0,0)"
font-family="Arial" font-size="12" font-weight="400" font-style="normal"
>
<polyline fill="none" vector-effect="none" points="1138.48,2470.46 2156.98,1882.43 " />
<polyline fill="none" vector-effect="none" points="1138.48,2470.46 1138.48,1294.4 " />
<polyline fill="none" vector-effect="none" points="1138.48,1294.4 2156.98,706.377 " />
<polyline fill="none" vector-effect="none" points="2156.98,1882.43 2156.98,706.377 " />
<polyline fill="none" vector-effect="none" points="119.989,1882.43 119.989,706.377 " />
<polyline fill="none" vector-effect="none" points="1138.48,1294.4 119.989,706.377 " />
<polyline fill="none" vector-effect="none" points="1138.48,2470.46 119.989,1882.43 " />
<polyline fill="none" vector-effect="none" points="119.989,706.377 1138.48,118.349 " />
<polyline fill="none" vector-effect="none" points="2156.98,706.377 1138.48,118.349 " />
</g>

<g fill="none" stroke="#000000" stroke-opacity="1" stroke-width="150" stroke-linecap="square" stroke-linejoin="bevel" transform="matrix(1,0,0,1,0,0)"
font-family="Arial" font-size="12" font-weight="400" font-style="normal"
>
</g>
</g>
</svg>
