<svg id="Layer_2" enable-background="new 0 0 24 24" height="512" viewBox="0 0 24 24" width="512" xmlns="http://www.w3.org/2000/svg"><g><path d="m17.5 24h-15c-1.379 0-2.5-1.122-2.5-2.5v-15c0-1.378 1.121-2.5 2.5-2.5h9c.276 0 .5.224.5.5s-.224.5-.5.5h-9c-.827 0-1.5.673-1.5 1.5v15c0 .827.673 1.5 1.5 1.5h15c.827 0 1.5-.673 1.5-1.5v-9c0-.276.224-.5.5-.5s.5.224.5.5v9c0 1.378-1.121 2.5-2.5 2.5z"/></g><g><g><path d="m8.772 15.728c-.131 0-.259-.052-.354-.146-.118-.118-.17-.288-.137-.452l.707-3.536c.02-.097.066-.186.137-.255l10.607-10.607c.975-.975 2.561-.975 3.535 0 .473.472.733 1.1.733 1.768s-.26 1.296-.732 1.768l-10.607 10.607c-.069.07-.158.117-.256.137l-3.535.706c-.032.007-.065.01-.098.01zm1.168-3.789-.53 2.652 2.651-.53 10.499-10.5c.284-.284.44-.66.44-1.061s-.156-.777-.439-1.061c-.584-.585-1.537-.585-2.121 0zm2.368 2.582h.01z"/></g><g><path d="m21.5 5.829c-.128 0-.256-.049-.354-.146l-2.828-2.829c-.195-.195-.195-.512 0-.707s.512-.195.707 0l2.828 2.829c.195.195.195.512 0 .707-.097.097-.225.146-.353.146z"/></g></g></svg>