<?xml version="1.0" encoding="iso-8859-1"?>
<!-- Generator: Adobe Illustrator 19.0.0, SVG Export Plug-In . SVG Version: 6.00 Build 0)  -->
<svg version="1.1" id="Capa_1" xmlns="http://www.w3.org/2000/svg" xmlns:xlink="http://www.w3.org/1999/xlink" x="0px" y="0px"
	 viewBox="0 0 504.214 504.214" style="enable-background:new 0 0 504.214 504.214;" xml:space="preserve">
<g>
	<g>
		<g>
			<polygon points="235.682,38.72 209.323,23.959 184.304,37.969 210.678,52.738 			"/>
			<polygon points="419.188,141.483 388.323,124.198 388.215,124.138 345.471,100.201 320.466,114.22 394.169,155.493 			"/>
			<polygon points="392.824,105.768 416.903,92.286 340.91,49.73 316.826,63.209 			"/>
			<polygon points="328.095,192.495 254.397,151.221 225.761,167.254 299.465,208.528 			"/>
			<polygon points="375.462,165.969 349.12,151.218 320.459,167.267 346.801,182.02 			"/>
			<polygon points="437.894,131.007 461.971,117.525 435.61,102.763 411.532,116.244 			"/>
			<polygon points="301.753,156.79 330.413,140.742 297.314,122.206 297.116,122.095 254.42,98.186 225.757,114.229 			"/>
			<polygon points="207.035,209.802 235.686,193.764 202.645,175.261 202.351,175.096 159.702,151.213 131.051,167.251 			"/>
			<polygon points="202.401,122.1 163.318,100.211 134.677,116.247 207.053,156.777 235.69,140.743 202.572,122.195 			"/>
			<polygon points="326.765,89.727 293.667,71.191 293.441,71.065 254.388,49.195 229.383,63.214 301.76,103.745 			"/>
			<polygon points="322.189,39.247 252.107,0 228.03,13.483 298.105,52.725 			"/>
			<polygon points="32.678,203.597 242.964,321.357 242.964,250.881 32.678,133.125 			"/>
			<polygon points="254.407,204.247 225.755,220.285 252.113,235.045 280.758,219.004 			"/>
			<polygon points="261.25,504.214 471.535,386.453 471.535,315.977 261.25,433.737 			"/>
			<polygon points="398.85,173.824 398.597,173.965 304.054,226.909 303.985,226.948 261.25,250.879 261.25,321.357 
				471.535,203.597 471.535,133.12 			"/>
			<polygon points="261.25,412.785 471.535,295.026 471.535,224.549 261.25,342.308 			"/>
			<polygon points="144.611,89.735 118.241,74.966 89.601,91.005 115.97,105.771 			"/>
			<polygon points="235.7,87.702 165.598,48.446 136.947,64.49 207.038,103.745 			"/>
			<polygon points="32.678,254.667 32.678,295.026 242.964,412.785 242.964,342.308 32.678,224.549 			"/>
			<polygon points="140.982,140.729 111.428,124.179 111.4,124.163 70.894,101.48 42.248,117.522 112.33,156.768 			"/>
			<polygon points="32.678,386.453 242.964,504.212 242.964,433.737 32.678,315.977 			"/>
		</g>
	</g>
</g>
<g>
</g>
<g>
</g>
<g>
</g>
<g>
</g>
<g>
</g>
<g>
</g>
<g>
</g>
<g>
</g>
<g>
</g>
<g>
</g>
<g>
</g>
<g>
</g>
<g>
</g>
<g>
</g>
<g>
</g>
</svg>
